<?xml version="1.0" encoding="UTF-8" standalone="no"?>
<!DOCTYPE svg PUBLIC "-//W3C//DTD SVG 1.1//EN" "http://www.w3.org/Graphics/SVG/1.1/DTD/svg11.dtd">
<svg width="100%" height="100%" viewBox="0 0 24 24" version="1.1" xmlns="http://www.w3.org/2000/svg" xmlns:xlink="http://www.w3.org/1999/xlink" xml:space="preserve" xmlns:serif="http://www.serif.com/" style="fill-rule:evenodd;clip-rule:evenodd;stroke-linejoin:round;stroke-miterlimit:2;">
    <g transform="matrix(1,0,0,1,12,12)">
        <g transform="matrix(1,0,0,1,-16,-16)">
            <path d="M16,4C9.383,4 4,9.383 4,16C4,22.617 9.383,28 16,28C22.617,28 28,22.617 28,16C28,9.383 22.617,4 16,4ZM16,6C18.535,6 20.832,6.953 22.594,8.5C22.406,8.762 22.152,9.078 21.75,9.469C20.895,10.297 19.527,11.293 17.438,12.063C16.023,9.449 14.637,7.484 13.719,6.25C14.449,6.082 15.215,6 16,6ZM11.75,6.938C12.57,8.012 14.031,10.004 15.5,12.656C11.434,13.734 7.703,13.871 6.219,13.875C6.883,10.785 8.961,8.242 11.75,6.938ZM23.969,9.969C25.188,11.582 25.945,13.578 26,15.75C25.109,15.551 23.797,15.355 22.094,15.344C21.207,15.34 20.203,15.402 19.125,15.531C18.875,14.961 18.605,14.41 18.344,13.875C20.586,13.016 22.113,11.883 23.125,10.906C23.469,10.57 23.738,10.262 23.969,9.969ZM16.406,14.469C16.637,14.934 16.871,15.41 17.094,15.906C12.82,17.09 9.75,20.715 8.438,22.531C6.926,20.781 6,18.5 6,16L6,15.875C7.352,15.891 11.648,15.797 16.406,14.469ZM22.094,17.313C23.879,17.313 25.113,17.563 25.844,17.75C25.379,20.414 23.875,22.699 21.75,24.188C21.352,21.797 20.695,19.523 19.906,17.438C20.695,17.359 21.441,17.313 22.094,17.313ZM17.875,17.781C18.773,20.063 19.527,22.566 19.906,25.219C18.711,25.723 17.383,26 16,26C13.707,26 11.59,25.23 9.906,23.938C10.934,22.531 13.953,18.789 17.875,17.781Z" style="fill:rgb(112,127,151);fill-rule:nonzero;"/>
        </g>
    </g>
</svg>
