<?xml version="1.0" encoding="UTF-8" standalone="no"?>
<!DOCTYPE svg PUBLIC "-//W3C//DTD SVG 1.1//EN" "http://www.w3.org/Graphics/SVG/1.1/DTD/svg11.dtd">
<svg width="100%" height="100%" viewBox="0 0 1080 1080" version="1.1" xmlns="http://www.w3.org/2000/svg" xmlns:xlink="http://www.w3.org/1999/xlink" xml:space="preserve" xmlns:serif="http://www.serif.com/" style="fill-rule:evenodd;clip-rule:evenodd;stroke-linejoin:round;stroke-miterlimit:2;">
    <g transform="matrix(1,0,0,1,27.1814,64.8507)">
        <circle cx="93.671" cy="17.475" r="17.475" style="fill:rgb(52,40,88);"/>
    </g>
    <g transform="matrix(1,0,0,1,27.1814,-14.9106)">
        <circle cx="93.671" cy="17.475" r="17.475" style="fill:rgb(52,40,88);"/>
    </g>
    <g transform="matrix(1,0,0,1,30.4206,145.105)">
        <circle cx="93.671" cy="17.475" r="17.475" style="fill:rgb(52,40,88);"/>
    </g>
    <g transform="matrix(1,0,0,1,316.536,103.629)">
        <circle cx="93.671" cy="17.475" r="17.475" style="fill:rgb(52,40,88);"/>
    </g>
    <g transform="matrix(1,0,0,1,316.536,23.8679)">
        <circle cx="93.671" cy="17.475" r="17.475" style="fill:rgb(52,40,88);"/>
    </g>
    <g transform="matrix(1,0,0,1,316.536,185.103)">
        <circle cx="93.671" cy="17.475" r="17.475" style="fill:rgb(52,40,88);"/>
    </g>
    <g transform="matrix(1,0,0,1,316.536,267.254)">
        <circle cx="93.671" cy="17.475" r="17.475" style="fill:rgb(52,40,88);"/>
    </g>
    <g transform="matrix(1,0,0,1,316.536,352.305)">
        <circle cx="93.671" cy="17.475" r="17.475" style="fill:rgb(52,40,88);"/>
    </g>
    <g transform="matrix(1,0,0,1,316.536,440.793)">
        <circle cx="93.671" cy="17.475" r="17.475" style="fill:rgb(52,40,88);"/>
    </g>
    <g transform="matrix(1,0,0,1,316.536,522.722)">
        <circle cx="93.671" cy="17.475" r="17.475" style="fill:rgb(52,40,88);"/>
    </g>
    <g transform="matrix(1,0,0,1,340.478,64.8507)">
        <circle cx="93.671" cy="17.475" r="17.475" style="fill:rgb(52,40,88);"/>
    </g>
    <g transform="matrix(1,0,0,1,340.478,-14.9106)">
        <circle cx="93.671" cy="17.475" r="17.475" style="fill:rgb(52,40,88);"/>
    </g>
    <g transform="matrix(1,0,0,1,343.717,145.105)">
        <circle cx="93.671" cy="17.475" r="17.475" style="fill:rgb(52,40,88);"/>
    </g>
    <g transform="matrix(1,0,0,1,343.717,226.578)">
        <circle cx="93.671" cy="17.475" r="17.475" style="fill:rgb(52,40,88);"/>
    </g>
    <g transform="matrix(1,0,0,1,343.717,308.73)">
        <circle cx="93.671" cy="17.475" r="17.475" style="fill:rgb(52,40,88);"/>
    </g>
    <g transform="matrix(1,0,0,1,343.717,393.781)">
        <circle cx="93.671" cy="17.475" r="17.475" style="fill:rgb(52,40,88);"/>
    </g>
    <g transform="matrix(1,0,0,1,343.717,482.268)">
        <circle cx="93.671" cy="17.475" r="17.475" style="fill:rgb(52,40,88);"/>
    </g>
    <g transform="matrix(1,0,0,1,343.717,564.197)">
        <circle cx="93.671" cy="17.475" r="17.475" style="fill:rgb(52,40,88);"/>
    </g>
    <g transform="matrix(1,0,0,1,629.849,103.629)">
        <circle cx="93.671" cy="17.475" r="17.475" style="fill:rgb(52,40,88);"/>
    </g>
    <g transform="matrix(1,0,0,1,629.849,23.8679)">
        <circle cx="93.671" cy="17.475" r="17.475" style="fill:rgb(52,40,88);"/>
    </g>
    <g transform="matrix(1,0,0,1,629.849,185.103)">
        <circle cx="93.671" cy="17.475" r="17.475" style="fill:rgb(52,40,88);"/>
    </g>
    <g transform="matrix(1,0,0,1,653.791,64.8507)">
        <circle cx="93.671" cy="17.475" r="17.475" style="fill:rgb(52,40,88);"/>
    </g>
    <g transform="matrix(1,0,0,1,653.791,-14.9106)">
        <circle cx="93.671" cy="17.475" r="17.475" style="fill:rgb(52,40,88);"/>
    </g>
    <g transform="matrix(1,0,0,1,657.03,145.105)">
        <circle cx="93.671" cy="17.475" r="17.475" style="fill:rgb(52,40,88);"/>
    </g>
    <g transform="matrix(1,0,0,1,657.03,226.578)">
        <circle cx="93.671" cy="17.475" r="17.475" style="fill:rgb(52,40,88);"/>
    </g>
    <g transform="matrix(1,0,0,1,657.03,652.836)">
        <circle cx="93.671" cy="17.475" r="17.475" style="fill:rgb(52,40,88);"/>
    </g>
    <g transform="matrix(1,0,0,1,658.02,732.367)">
        <circle cx="93.671" cy="17.475" r="17.475" style="fill:rgb(52,40,88);"/>
    </g>
    <g transform="matrix(1,0,0,1,685.843,771.55)">
        <circle cx="93.671" cy="17.475" r="17.475" style="fill:rgb(52,40,88);"/>
    </g>
    <g transform="matrix(1,0,0,1,795.62,771.55)">
        <circle cx="93.671" cy="17.475" r="17.475" style="fill:rgb(52,40,88);"/>
    </g>
    <g transform="matrix(1,0,0,1,720.92,807.862)">
        <circle cx="93.671" cy="17.475" r="17.475" style="fill:rgb(52,40,88);"/>
    </g>
    <g transform="matrix(1,0,0,1,763.75,806.909)">
        <circle cx="93.671" cy="17.475" r="17.475" style="fill:rgb(52,40,88);"/>
    </g>
    <g transform="matrix(1,0,0,1,827.565,806.909)">
        <circle cx="93.671" cy="17.475" r="17.475" style="fill:rgb(52,40,88);"/>
    </g>
    <g transform="matrix(1,0,0,1,157.831,103.629)">
        <circle cx="93.671" cy="17.475" r="17.475" style="fill:rgb(52,40,88);"/>
    </g>
    <g transform="matrix(1,0,0,1,157.831,23.8679)">
        <circle cx="93.671" cy="17.475" r="17.475" style="fill:rgb(52,40,88);"/>
    </g>
    <g transform="matrix(1,0,0,1,157.831,185.103)">
        <circle cx="93.671" cy="17.475" r="17.475" style="fill:rgb(52,40,88);"/>
    </g>
    <g transform="matrix(1,0,0,1,157.831,267.254)">
        <circle cx="93.671" cy="17.475" r="17.475" style="fill:rgb(52,40,88);"/>
    </g>
    <g transform="matrix(1,0,0,1,181.773,64.8507)">
        <circle cx="93.671" cy="17.475" r="17.475" style="fill:rgb(52,40,88);"/>
    </g>
    <g transform="matrix(1,0,0,1,181.773,-14.9106)">
        <circle cx="93.671" cy="17.475" r="17.475" style="fill:rgb(52,40,88);"/>
    </g>
    <g transform="matrix(1,0,0,1,185.012,145.105)">
        <circle cx="93.671" cy="17.475" r="17.475" style="fill:rgb(52,40,88);"/>
    </g>
    <g transform="matrix(1,0,0,1,185.012,226.578)">
        <circle cx="93.671" cy="17.475" r="17.475" style="fill:rgb(52,40,88);"/>
    </g>
    <g transform="matrix(1,0,0,1,185.012,308.73)">
        <circle cx="93.671" cy="17.475" r="17.475" style="fill:rgb(52,40,88);"/>
    </g>
    <g transform="matrix(1,0,0,1,185.012,393.781)">
        <circle cx="93.671" cy="17.475" r="17.475" style="fill:rgb(52,40,88);"/>
    </g>
    <g transform="matrix(1,0,0,1,210.235,440.511)">
        <circle cx="93.671" cy="17.475" r="17.475" style="fill:rgb(52,40,88);"/>
    </g>
    <g transform="matrix(1,0,0,1,471.127,103.629)">
        <circle cx="93.671" cy="17.475" r="17.475" style="fill:rgb(52,40,88);"/>
    </g>
    <g transform="matrix(1,0,0,1,471.127,23.8679)">
        <circle cx="93.671" cy="17.475" r="17.475" style="fill:rgb(52,40,88);"/>
    </g>
    <g transform="matrix(1,0,0,1,471.127,185.103)">
        <circle cx="93.671" cy="17.475" r="17.475" style="fill:rgb(52,40,88);"/>
    </g>
    <g transform="matrix(1,0,0,1,495.069,64.8507)">
        <circle cx="93.671" cy="17.475" r="17.475" style="fill:rgb(52,40,88);"/>
    </g>
    <g transform="matrix(1,0,0,1,495.069,-14.9106)">
        <circle cx="93.671" cy="17.475" r="17.475" style="fill:rgb(52,40,88);"/>
    </g>
    <g transform="matrix(1,0,0,1,498.308,145.105)">
        <circle cx="93.671" cy="17.475" r="17.475" style="fill:rgb(52,40,88);"/>
    </g>
    <g transform="matrix(1,0,0,1,498.308,226.578)">
        <circle cx="93.671" cy="17.475" r="17.475" style="fill:rgb(52,40,88);"/>
    </g>
    <g transform="matrix(1,0,0,1,498.308,564.197)">
        <circle cx="93.671" cy="17.475" r="17.475" style="fill:rgb(52,40,88);"/>
    </g>
    <g transform="matrix(1,0,0,1,784.44,103.629)">
        <circle cx="93.671" cy="17.475" r="17.475" style="fill:rgb(52,40,88);"/>
    </g>
    <g transform="matrix(1,0,0,1,784.44,23.8679)">
        <circle cx="93.671" cy="17.475" r="17.475" style="fill:rgb(52,40,88);"/>
    </g>
    <g transform="matrix(1,0,0,1,784.44,185.103)">
        <circle cx="93.671" cy="17.475" r="17.475" style="fill:rgb(52,40,88);"/>
    </g>
    <g transform="matrix(1,0,0,1,784.44,440.793)">
        <circle cx="93.671" cy="17.475" r="17.475" style="fill:rgb(52,40,88);"/>
    </g>
    <g transform="matrix(1,0,0,1,808.382,64.8507)">
        <circle cx="93.671" cy="17.475" r="17.475" style="fill:rgb(52,40,88);"/>
    </g>
    <g transform="matrix(1,0,0,1,808.382,-14.9106)">
        <circle cx="93.671" cy="17.475" r="17.475" style="fill:rgb(52,40,88);"/>
    </g>
    <g transform="matrix(1,0,0,1,811.621,145.105)">
        <circle cx="93.671" cy="17.475" r="17.475" style="fill:rgb(52,40,88);"/>
    </g>
    <g transform="matrix(1,0,0,1,811.621,482.268)">
        <circle cx="93.671" cy="17.475" r="17.475" style="fill:rgb(52,40,88);"/>
    </g>
    <g transform="matrix(1,0,0,1,53.4257,103.629)">
        <circle cx="93.671" cy="17.475" r="17.475" style="fill:rgb(52,40,88);"/>
    </g>
    <g transform="matrix(1,0,0,1,53.4257,23.8679)">
        <circle cx="93.671" cy="17.475" r="17.475" style="fill:rgb(52,40,88);"/>
    </g>
    <g transform="matrix(1,0,0,1,53.4257,185.103)">
        <circle cx="93.671" cy="17.475" r="17.475" style="fill:rgb(52,40,88);"/>
    </g>
    <g transform="matrix(1,0,0,1,53.4257,267.254)">
        <circle cx="93.671" cy="17.475" r="17.475" style="fill:rgb(52,40,88);"/>
    </g>
    <g transform="matrix(1,0,0,1,77.3678,64.8507)">
        <circle cx="93.671" cy="17.475" r="17.475" style="fill:rgb(52,40,88);"/>
    </g>
    <g transform="matrix(1,0,0,1,77.3678,-14.9106)">
        <circle cx="93.671" cy="17.475" r="17.475" style="fill:rgb(52,40,88);"/>
    </g>
    <g transform="matrix(1,0,0,1,80.6071,145.105)">
        <circle cx="93.671" cy="17.475" r="17.475" style="fill:rgb(52,40,88);"/>
    </g>
    <g transform="matrix(1,0,0,1,80.6071,226.578)">
        <circle cx="93.671" cy="17.475" r="17.475" style="fill:rgb(52,40,88);"/>
    </g>
    <g transform="matrix(1,0,0,1,80.6071,308.73)">
        <circle cx="93.671" cy="17.475" r="17.475" style="fill:rgb(52,40,88);"/>
    </g>
    <g transform="matrix(1,0,0,1,366.722,103.629)">
        <circle cx="93.671" cy="17.475" r="17.475" style="fill:rgb(52,40,88);"/>
    </g>
    <g transform="matrix(1,0,0,1,366.722,23.8679)">
        <circle cx="93.671" cy="17.475" r="17.475" style="fill:rgb(52,40,88);"/>
    </g>
    <g transform="matrix(1,0,0,1,366.722,185.103)">
        <circle cx="93.671" cy="17.475" r="17.475" style="fill:rgb(52,40,88);"/>
    </g>
    <g transform="matrix(1,0,0,1,366.722,267.254)">
        <circle cx="93.671" cy="17.475" r="17.475" style="fill:rgb(52,40,88);"/>
    </g>
    <g transform="matrix(1,0,0,1,366.722,352.305)">
        <circle cx="93.671" cy="17.475" r="17.475" style="fill:rgb(52,40,88);"/>
    </g>
    <g transform="matrix(1,0,0,1,366.722,440.793)">
        <circle cx="93.671" cy="17.475" r="17.475" style="fill:rgb(52,40,88);"/>
    </g>
    <g transform="matrix(1,0,0,1,366.722,522.722)">
        <circle cx="93.671" cy="17.475" r="17.475" style="fill:rgb(52,40,88);"/>
    </g>
    <g transform="matrix(1,0,0,1,390.664,64.8507)">
        <circle cx="93.671" cy="17.475" r="17.475" style="fill:rgb(52,40,88);"/>
    </g>
    <g transform="matrix(1,0,0,1,390.664,-14.9106)">
        <circle cx="93.671" cy="17.475" r="17.475" style="fill:rgb(52,40,88);"/>
    </g>
    <g transform="matrix(1,0,0,1,393.903,145.105)">
        <circle cx="93.671" cy="17.475" r="17.475" style="fill:rgb(52,40,88);"/>
    </g>
    <g transform="matrix(1,0,0,1,393.903,226.578)">
        <circle cx="93.671" cy="17.475" r="17.475" style="fill:rgb(52,40,88);"/>
    </g>
    <g transform="matrix(1,0,0,1,393.903,308.73)">
        <circle cx="93.671" cy="17.475" r="17.475" style="fill:rgb(52,40,88);"/>
    </g>
    <g transform="matrix(1,0,0,1,393.903,564.197)">
        <circle cx="93.671" cy="17.475" r="17.475" style="fill:rgb(52,40,88);"/>
    </g>
    <g transform="matrix(1,0,0,1,680.035,103.629)">
        <circle cx="93.671" cy="17.475" r="17.475" style="fill:rgb(52,40,88);"/>
    </g>
    <g transform="matrix(1,0,0,1,680.035,23.8679)">
        <circle cx="93.671" cy="17.475" r="17.475" style="fill:rgb(52,40,88);"/>
    </g>
    <g transform="matrix(1,0,0,1,680.035,185.103)">
        <circle cx="93.671" cy="17.475" r="17.475" style="fill:rgb(52,40,88);"/>
    </g>
    <g transform="matrix(1,0,0,1,680.035,267.254)">
        <circle cx="93.671" cy="17.475" r="17.475" style="fill:rgb(52,40,88);"/>
    </g>
    <g transform="matrix(1,0,0,1,680.035,611.36)">
        <circle cx="93.671" cy="17.475" r="17.475" style="fill:rgb(52,40,88);"/>
    </g>
    <g transform="matrix(1,0,0,1,631.132,693.487)">
        <circle cx="93.671" cy="17.475" r="17.475" style="fill:rgb(52,40,88);"/>
    </g>
    <g transform="matrix(1,0,0,1,703.977,64.8507)">
        <circle cx="93.671" cy="17.475" r="17.475" style="fill:rgb(52,40,88);"/>
    </g>
    <g transform="matrix(1,0,0,1,703.977,-14.9106)">
        <circle cx="93.671" cy="17.475" r="17.475" style="fill:rgb(52,40,88);"/>
    </g>
    <g transform="matrix(1,0,0,1,707.217,145.105)">
        <circle cx="93.671" cy="17.475" r="17.475" style="fill:rgb(52,40,88);"/>
    </g>
    <g transform="matrix(1,0,0,1,707.217,226.578)">
        <circle cx="93.671" cy="17.475" r="17.475" style="fill:rgb(52,40,88);"/>
    </g>
    <g transform="matrix(1,0,0,1,707.217,308.73)">
        <circle cx="93.671" cy="17.475" r="17.475" style="fill:rgb(52,40,88);"/>
    </g>
    <g transform="matrix(1,0,0,1,707.217,652.836)">
        <circle cx="93.671" cy="17.475" r="17.475" style="fill:rgb(52,40,88);"/>
    </g>
    <g transform="matrix(1,0,0,1,208.017,103.629)">
        <circle cx="93.671" cy="17.475" r="17.475" style="fill:rgb(52,40,88);"/>
    </g>
    <g transform="matrix(1,0,0,1,208.017,23.8679)">
        <circle cx="93.671" cy="17.475" r="17.475" style="fill:rgb(52,40,88);"/>
    </g>
    <g transform="matrix(1,0,0,1,208.017,185.103)">
        <circle cx="93.671" cy="17.475" r="17.475" style="fill:rgb(52,40,88);"/>
    </g>
    <g transform="matrix(1,0,0,1,208.017,267.254)">
        <circle cx="93.671" cy="17.475" r="17.475" style="fill:rgb(52,40,88);"/>
    </g>
    <g transform="matrix(1,0,0,1,208.017,352.305)">
        <circle cx="93.671" cy="17.475" r="17.475" style="fill:rgb(52,40,88);"/>
    </g>
    <g transform="matrix(1,0,0,1,231.959,64.8507)">
        <circle cx="93.671" cy="17.475" r="17.475" style="fill:rgb(52,40,88);"/>
    </g>
    <g transform="matrix(1,0,0,1,231.959,-14.9106)">
        <circle cx="93.671" cy="17.475" r="17.475" style="fill:rgb(52,40,88);"/>
    </g>
    <g transform="matrix(1,0,0,1,235.198,145.105)">
        <circle cx="93.671" cy="17.475" r="17.475" style="fill:rgb(52,40,88);"/>
    </g>
    <g transform="matrix(1,0,0,1,235.198,226.578)">
        <circle cx="93.671" cy="17.475" r="17.475" style="fill:rgb(52,40,88);"/>
    </g>
    <g transform="matrix(1,0,0,1,235.198,308.73)">
        <circle cx="93.671" cy="17.475" r="17.475" style="fill:rgb(52,40,88);"/>
    </g>
    <g transform="matrix(1,0,0,1,235.198,393.781)">
        <circle cx="93.671" cy="17.475" r="17.475" style="fill:rgb(52,40,88);"/>
    </g>
    <g transform="matrix(1,0,0,1,235.198,482.268)">
        <circle cx="93.671" cy="17.475" r="17.475" style="fill:rgb(52,40,88);"/>
    </g>
    <g transform="matrix(1,0,0,1,521.313,103.629)">
        <circle cx="93.671" cy="17.475" r="17.475" style="fill:rgb(52,40,88);"/>
    </g>
    <g transform="matrix(1,0,0,1,521.313,23.8679)">
        <circle cx="93.671" cy="17.475" r="17.475" style="fill:rgb(52,40,88);"/>
    </g>
    <g transform="matrix(1,0,0,1,521.313,185.103)">
        <circle cx="93.671" cy="17.475" r="17.475" style="fill:rgb(52,40,88);"/>
    </g>
    <g transform="matrix(1,0,0,1,521.313,267.254)">
        <circle cx="93.671" cy="17.475" r="17.475" style="fill:rgb(52,40,88);"/>
    </g>
    <g transform="matrix(1,0,0,1,521.313,522.722)">
        <circle cx="93.671" cy="17.475" r="17.475" style="fill:rgb(52,40,88);"/>
    </g>
    <g transform="matrix(1,0,0,1,521.313,611.36)">
        <circle cx="93.671" cy="17.475" r="17.475" style="fill:rgb(52,40,88);"/>
    </g>
    <g transform="matrix(1,0,0,1,545.255,64.8507)">
        <circle cx="93.671" cy="17.475" r="17.475" style="fill:rgb(52,40,88);"/>
    </g>
    <g transform="matrix(1,0,0,1,545.255,-14.9106)">
        <circle cx="93.671" cy="17.475" r="17.475" style="fill:rgb(52,40,88);"/>
    </g>
    <g transform="matrix(1,0,0,1,548.495,145.105)">
        <circle cx="93.671" cy="17.475" r="17.475" style="fill:rgb(52,40,88);"/>
    </g>
    <g transform="matrix(1,0,0,1,548.495,226.578)">
        <circle cx="93.671" cy="17.475" r="17.475" style="fill:rgb(52,40,88);"/>
    </g>
    <g transform="matrix(1,0,0,1,548.495,482.268)">
        <circle cx="93.671" cy="17.475" r="17.475" style="fill:rgb(52,40,88);"/>
    </g>
    <g transform="matrix(1,0,0,1,548.495,564.197)">
        <circle cx="93.671" cy="17.475" r="17.475" style="fill:rgb(52,40,88);"/>
    </g>
    <g transform="matrix(1,0,0,1,548.495,652.836)">
        <circle cx="93.671" cy="17.475" r="17.475" style="fill:rgb(52,40,88);"/>
    </g>
    <g transform="matrix(1,0,0,1,834.627,103.629)">
        <circle cx="93.671" cy="17.475" r="17.475" style="fill:rgb(52,40,88);"/>
    </g>
    <g transform="matrix(1,0,0,1,834.627,23.8679)">
        <circle cx="93.671" cy="17.475" r="17.475" style="fill:rgb(52,40,88);"/>
    </g>
    <g transform="matrix(1,0,0,1,889.631,23.8679)">
        <circle cx="93.671" cy="17.475" r="17.475" style="fill:rgb(52,40,88);"/>
    </g>
    <g transform="matrix(1,0,0,1,834.627,522.722)">
        <circle cx="93.671" cy="17.475" r="17.475" style="fill:rgb(52,40,88);"/>
    </g>
    <g transform="matrix(1,0,0,1,878.172,806.578)">
        <circle cx="93.671" cy="17.475" r="17.475" style="fill:rgb(52,40,88);"/>
    </g>
    <g transform="matrix(1,0,0,1,908.185,765.776)">
        <circle cx="93.671" cy="17.475" r="17.475" style="fill:rgb(52,40,88);"/>
    </g>
    <g transform="matrix(1,0,0,1,933.966,727.977)">
        <circle cx="93.671" cy="17.475" r="17.475" style="fill:rgb(52,40,88);"/>
    </g>
    <g transform="matrix(1,0,0,1,878.172,884.399)">
        <circle cx="93.671" cy="17.475" r="17.475" style="fill:rgb(52,40,88);"/>
    </g>
    <g transform="matrix(1,0,0,1,828.451,963.074)">
        <circle cx="93.671" cy="17.475" r="17.475" style="fill:rgb(52,40,88);"/>
    </g>
    <g transform="matrix(1,0,0,1,785.834,1043.95)">
        <circle cx="93.671" cy="17.475" r="17.475" style="fill:rgb(52,40,88);"/>
    </g>
    <g transform="matrix(1,0,0,1,854.921,845.432)">
        <circle cx="93.671" cy="17.475" r="17.475" style="fill:rgb(52,40,88);"/>
    </g>
    <g transform="matrix(1,0,0,1,854.921,923.253)">
        <circle cx="93.671" cy="17.475" r="17.475" style="fill:rgb(52,40,88);"/>
    </g>
    <g transform="matrix(1,0,0,1,805.2,1001.93)">
        <circle cx="93.671" cy="17.475" r="17.475" style="fill:rgb(52,40,88);"/>
    </g>
    <g transform="matrix(1,0,0,1,759.624,1001.93)">
        <circle cx="93.671" cy="17.475" r="17.475" style="fill:rgb(52,40,88);"/>
    </g>
    <g transform="matrix(1,0,0,1,984.043,806.578)">
        <circle cx="93.671" cy="17.475" r="17.475" style="fill:rgb(52,40,88);"/>
    </g>
    <g transform="matrix(1,0,0,1,984.043,884.399)">
        <circle cx="93.671" cy="17.475" r="17.475" style="fill:rgb(52,40,88);"/>
    </g>
    <g transform="matrix(1,0,0,1,934.322,963.074)">
        <circle cx="93.671" cy="17.475" r="17.475" style="fill:rgb(52,40,88);"/>
    </g>
    <g transform="matrix(1,0,0,1,891.706,1043.95)">
        <circle cx="93.671" cy="17.475" r="17.475" style="fill:rgb(52,40,88);"/>
    </g>
    <g transform="matrix(1,0,0,1,960.793,845.432)">
        <circle cx="93.671" cy="17.475" r="17.475" style="fill:rgb(52,40,88);"/>
    </g>
    <g transform="matrix(1,0,0,1,960.793,923.253)">
        <circle cx="93.671" cy="17.475" r="17.475" style="fill:rgb(52,40,88);"/>
    </g>
    <g transform="matrix(1,0,0,1,911.071,1001.93)">
        <circle cx="93.671" cy="17.475" r="17.475" style="fill:rgb(52,40,88);"/>
    </g>
    <g transform="matrix(1,0,0,1,858.569,-14.9106)">
        <circle cx="93.671" cy="17.475" r="17.475" style="fill:rgb(52,40,88);"/>
    </g>
    <g transform="matrix(1,0,0,1,913.573,-14.9106)">
        <circle cx="93.671" cy="17.475" r="17.475" style="fill:rgb(52,40,88);"/>
    </g>
    <g transform="matrix(1,0,0,1,106.221,103.629)">
        <circle cx="93.671" cy="17.475" r="17.475" style="fill:rgb(52,40,88);"/>
    </g>
    <g transform="matrix(1,0,0,1,106.221,23.8679)">
        <circle cx="93.671" cy="17.475" r="17.475" style="fill:rgb(52,40,88);"/>
    </g>
    <g transform="matrix(1,0,0,1,106.221,185.103)">
        <circle cx="93.671" cy="17.475" r="17.475" style="fill:rgb(52,40,88);"/>
    </g>
    <g transform="matrix(1,0,0,1,106.221,352.305)">
        <circle cx="93.671" cy="17.475" r="17.475" style="fill:rgb(52,40,88);"/>
    </g>
    <g transform="matrix(1,0,0,1,130.164,64.8507)">
        <circle cx="93.671" cy="17.475" r="17.475" style="fill:rgb(52,40,88);"/>
    </g>
    <g transform="matrix(1,0,0,1,130.164,-14.9106)">
        <circle cx="93.671" cy="17.475" r="17.475" style="fill:rgb(52,40,88);"/>
    </g>
    <g transform="matrix(1,0,0,1,133.403,145.105)">
        <circle cx="93.671" cy="17.475" r="17.475" style="fill:rgb(52,40,88);"/>
    </g>
    <g transform="matrix(1,0,0,1,133.403,226.578)">
        <circle cx="93.671" cy="17.475" r="17.475" style="fill:rgb(52,40,88);"/>
    </g>
    <g transform="matrix(1,0,0,1,419.518,103.629)">
        <circle cx="93.671" cy="17.475" r="17.475" style="fill:rgb(52,40,88);"/>
    </g>
    <g transform="matrix(1,0,0,1,419.518,23.8679)">
        <circle cx="93.671" cy="17.475" r="17.475" style="fill:rgb(52,40,88);"/>
    </g>
    <g transform="matrix(1,0,0,1,419.518,185.103)">
        <circle cx="93.671" cy="17.475" r="17.475" style="fill:rgb(52,40,88);"/>
    </g>
    <g transform="matrix(1,0,0,1,419.518,267.254)">
        <circle cx="93.671" cy="17.475" r="17.475" style="fill:rgb(52,40,88);"/>
    </g>
    <g transform="matrix(1,0,0,1,443.46,64.8507)">
        <circle cx="93.671" cy="17.475" r="17.475" style="fill:rgb(52,40,88);"/>
    </g>
    <g transform="matrix(1,0,0,1,443.46,-14.9106)">
        <circle cx="93.671" cy="17.475" r="17.475" style="fill:rgb(52,40,88);"/>
    </g>
    <g transform="matrix(1,0,0,1,446.699,145.105)">
        <circle cx="93.671" cy="17.475" r="17.475" style="fill:rgb(52,40,88);"/>
    </g>
    <g transform="matrix(1,0,0,1,446.699,226.578)">
        <circle cx="93.671" cy="17.475" r="17.475" style="fill:rgb(52,40,88);"/>
    </g>
    <g transform="matrix(1,0,0,1,446.699,564.197)">
        <circle cx="93.671" cy="17.475" r="17.475" style="fill:rgb(52,40,88);"/>
    </g>
    <g transform="matrix(1,0,0,1,732.831,103.629)">
        <circle cx="93.671" cy="17.475" r="17.475" style="fill:rgb(52,40,88);"/>
    </g>
    <g transform="matrix(1,0,0,1,732.831,23.8679)">
        <circle cx="93.671" cy="17.475" r="17.475" style="fill:rgb(52,40,88);"/>
    </g>
    <g transform="matrix(1,0,0,1,732.831,185.103)">
        <circle cx="93.671" cy="17.475" r="17.475" style="fill:rgb(52,40,88);"/>
    </g>
    <g transform="matrix(1,0,0,1,732.831,267.254)">
        <circle cx="93.671" cy="17.475" r="17.475" style="fill:rgb(52,40,88);"/>
    </g>
    <g transform="matrix(1,0,0,1,732.831,352.305)">
        <circle cx="93.671" cy="17.475" r="17.475" style="fill:rgb(52,40,88);"/>
    </g>
    <g transform="matrix(1,0,0,1,732.831,440.793)">
        <circle cx="93.671" cy="17.475" r="17.475" style="fill:rgb(52,40,88);"/>
    </g>
    <g transform="matrix(1,0,0,1,756.773,64.8507)">
        <circle cx="93.671" cy="17.475" r="17.475" style="fill:rgb(52,40,88);"/>
    </g>
    <g transform="matrix(1,0,0,1,756.773,-14.9106)">
        <circle cx="93.671" cy="17.475" r="17.475" style="fill:rgb(52,40,88);"/>
    </g>
    <g transform="matrix(1,0,0,1,760.012,145.105)">
        <circle cx="93.671" cy="17.475" r="17.475" style="fill:rgb(52,40,88);"/>
    </g>
    <g transform="matrix(1,0,0,1,760.012,393.781)">
        <circle cx="93.671" cy="17.475" r="17.475" style="fill:rgb(52,40,88);"/>
    </g>
    <g transform="matrix(1,0,0,1,260.813,103.629)">
        <circle cx="93.671" cy="17.475" r="17.475" style="fill:rgb(52,40,88);"/>
    </g>
    <g transform="matrix(1,0,0,1,260.813,23.8679)">
        <circle cx="93.671" cy="17.475" r="17.475" style="fill:rgb(52,40,88);"/>
    </g>
    <g transform="matrix(1,0,0,1,260.813,185.103)">
        <circle cx="93.671" cy="17.475" r="17.475" style="fill:rgb(52,40,88);"/>
    </g>
    <g transform="matrix(1,0,0,1,260.813,267.254)">
        <circle cx="93.671" cy="17.475" r="17.475" style="fill:rgb(52,40,88);"/>
    </g>
    <g transform="matrix(1,0,0,1,260.813,352.305)">
        <circle cx="93.671" cy="17.475" r="17.475" style="fill:rgb(52,40,88);"/>
    </g>
    <g transform="matrix(1,0,0,1,260.813,440.793)">
        <circle cx="93.671" cy="17.475" r="17.475" style="fill:rgb(52,40,88);"/>
    </g>
    <g transform="matrix(1,0,0,1,260.813,522.722)">
        <circle cx="93.671" cy="17.475" r="17.475" style="fill:rgb(52,40,88);"/>
    </g>
    <g transform="matrix(1,0,0,1,284.755,64.8507)">
        <circle cx="93.671" cy="17.475" r="17.475" style="fill:rgb(52,40,88);"/>
    </g>
    <g transform="matrix(1,0,0,1,284.755,-14.9106)">
        <circle cx="93.671" cy="17.475" r="17.475" style="fill:rgb(52,40,88);"/>
    </g>
    <g transform="matrix(1,0,0,1,287.994,145.105)">
        <circle cx="93.671" cy="17.475" r="17.475" style="fill:rgb(52,40,88);"/>
    </g>
    <g transform="matrix(1,0,0,1,287.994,226.578)">
        <circle cx="93.671" cy="17.475" r="17.475" style="fill:rgb(52,40,88);"/>
    </g>
    <g transform="matrix(1,0,0,1,287.994,308.73)">
        <circle cx="93.671" cy="17.475" r="17.475" style="fill:rgb(52,40,88);"/>
    </g>
    <g transform="matrix(1,0,0,1,287.994,393.781)">
        <circle cx="93.671" cy="17.475" r="17.475" style="fill:rgb(52,40,88);"/>
    </g>
    <g transform="matrix(1,0,0,1,287.994,482.268)">
        <circle cx="93.671" cy="17.475" r="17.475" style="fill:rgb(52,40,88);"/>
    </g>
    <g transform="matrix(1,0,0,1,574.109,103.629)">
        <circle cx="93.671" cy="17.475" r="17.475" style="fill:rgb(52,40,88);"/>
    </g>
    <g transform="matrix(1,0,0,1,574.109,23.8679)">
        <circle cx="93.671" cy="17.475" r="17.475" style="fill:rgb(52,40,88);"/>
    </g>
    <g transform="matrix(1,0,0,1,574.109,185.103)">
        <circle cx="93.671" cy="17.475" r="17.475" style="fill:rgb(52,40,88);"/>
    </g>
    <g transform="matrix(1,0,0,1,574.109,522.722)">
        <circle cx="93.671" cy="17.475" r="17.475" style="fill:rgb(52,40,88);"/>
    </g>
    <g transform="matrix(1,0,0,1,574.109,611.36)">
        <circle cx="93.671" cy="17.475" r="17.475" style="fill:rgb(52,40,88);"/>
    </g>
    <g transform="matrix(1,0,0,1,598.051,64.8507)">
        <circle cx="93.671" cy="17.475" r="17.475" style="fill:rgb(52,40,88);"/>
    </g>
    <g transform="matrix(1,0,0,1,598.051,-14.9106)">
        <circle cx="93.671" cy="17.475" r="17.475" style="fill:rgb(52,40,88);"/>
    </g>
    <g transform="matrix(1,0,0,1,601.29,145.105)">
        <circle cx="93.671" cy="17.475" r="17.475" style="fill:rgb(52,40,88);"/>
    </g>
    <g transform="matrix(1,0,0,1,601.29,226.578)">
        <circle cx="93.671" cy="17.475" r="17.475" style="fill:rgb(52,40,88);"/>
    </g>
    <g transform="matrix(1,0,0,1,601.29,482.268)">
        <circle cx="93.671" cy="17.475" r="17.475" style="fill:rgb(52,40,88);"/>
    </g>
    <g transform="matrix(1,0,0,1,601.29,652.836)">
        <circle cx="93.671" cy="17.475" r="17.475" style="fill:rgb(52,40,88);"/>
    </g>
    <g transform="matrix(1,0,0,1,887.422,522.722)">
        <circle cx="93.671" cy="17.475" r="17.475" style="fill:rgb(52,40,88);"/>
    </g>
    <g transform="matrix(1,0,0,1,930.968,806.578)">
        <circle cx="93.671" cy="17.475" r="17.475" style="fill:rgb(52,40,88);"/>
    </g>
    <g transform="matrix(1,0,0,1,960.98,765.776)">
        <circle cx="93.671" cy="17.475" r="17.475" style="fill:rgb(52,40,88);"/>
    </g>
    <g transform="matrix(1,0,0,1,930.968,884.399)">
        <circle cx="93.671" cy="17.475" r="17.475" style="fill:rgb(52,40,88);"/>
    </g>
    <g transform="matrix(1,0,0,1,881.246,963.074)">
        <circle cx="93.671" cy="17.475" r="17.475" style="fill:rgb(52,40,88);"/>
    </g>
    <g transform="matrix(1,0,0,1,838.63,1043.95)">
        <circle cx="93.671" cy="17.475" r="17.475" style="fill:rgb(52,40,88);"/>
    </g>
    <g transform="matrix(1,0,0,1,907.717,845.432)">
        <circle cx="93.671" cy="17.475" r="17.475" style="fill:rgb(52,40,88);"/>
    </g>
    <g transform="matrix(1,0,0,1,907.717,923.253)">
        <circle cx="93.671" cy="17.475" r="17.475" style="fill:rgb(52,40,88);"/>
    </g>
    <g transform="matrix(1,0,0,1,857.995,1001.93)">
        <circle cx="93.671" cy="17.475" r="17.475" style="fill:rgb(52,40,88);"/>
    </g>
    <g transform="matrix(1,0,0,1,987.118,963.074)">
        <circle cx="93.671" cy="17.475" r="17.475" style="fill:rgb(52,40,88);"/>
    </g>
    <g transform="matrix(1,0,0,1,944.502,1043.95)">
        <circle cx="93.671" cy="17.475" r="17.475" style="fill:rgb(52,40,88);"/>
    </g>
    <g transform="matrix(1,0,0,1,963.867,1001.93)">
        <circle cx="93.671" cy="17.475" r="17.475" style="fill:rgb(52,40,88);"/>
    </g>
</svg>
