<?xml version="1.0" encoding="UTF-8" standalone="no"?>
<!DOCTYPE svg PUBLIC "-//W3C//DTD SVG 1.1//EN" "http://www.w3.org/Graphics/SVG/1.1/DTD/svg11.dtd">
<svg width="100%" height="100%" viewBox="0 0 32 20" version="1.1" xmlns="http://www.w3.org/2000/svg" xmlns:xlink="http://www.w3.org/1999/xlink" xml:space="preserve" xmlns:serif="http://www.serif.com/" style="fill-rule:evenodd;clip-rule:evenodd;stroke-linejoin:round;stroke-miterlimit:2;">
    <g>
        <g id="Master_Card_1_">
            <g id="Master_Card">
                <circle id="Red_x5F_Circle" cx="10" cy="10" r="10" style="fill:rgb(249,50,50);"/>
                <path id="Yellow_x5F_Circle" d="M22,0C19.754,0 17.688,0.75 16.02,2L16,2L16,2.014C15.604,2.312 15.24,2.648 14.893,3L17.107,3C17.415,3.313 17.699,3.648 17.962,4L14.03,4C13.788,4.319 13.566,4.652 13.363,5L18.627,5C18.815,5.324 18.992,5.654 19.145,6L12.854,6C12.711,6.325 12.585,6.658 12.477,7L19.521,7C19.625,7.326 19.707,7.661 19.779,8L12.216,8C12.149,8.328 12.093,8.66 12.059,9L19.94,9C19.979,9.328 20,9.661 20,10L12,10C12,10.339 12.027,10.67 12.06,11L19.942,11C19.904,11.339 19.849,11.672 19.78,12L12.217,12C12.286,12.341 12.375,12.673 12.478,13L19.522,13C19.414,13.342 19.288,13.675 19.145,14L12.854,14C13.005,14.344 13.175,14.678 13.363,15L18.627,15C18.425,15.348 18.2,15.681 17.958,16L14.03,16C14.296,16.352 14.583,16.687 14.892,17L17.107,17C16.759,17.353 16.396,17.688 16,17.986C17.672,19.245 19.745,20 22,20C27.523,20 32,15.522 32,10C32,4.478 27.523,0 22,0Z" style="fill:rgb(254,208,73);fill-rule:nonzero;"/>
            </g>
        </g>
    </g>
</svg>
